<svg xmlns="http://www.w3.org/2000/svg" width="960" height="540" viewBox="0 0 960 540" role="img" aria-label="Demonstração Car Hunter Fast">
  <rect width="960" height="540" fill="#030812"/>
  <rect x="58" y="50" width="844" height="440" rx="24" fill="#091220" stroke="#3d5772"/>
  <rect x="92" y="92" width="246" height="356" rx="16" fill="#0d1d32"/>
  <rect x="366" y="92" width="486" height="170" rx="16" fill="#0d1d32"/>
  <rect x="366" y="286" width="486" height="162" rx="16" fill="#0d1d32"/>
  <path d="M132 354h166l-24-76c-7-22-24-38-45-43l-36-9-36 9c-21 5-38 21-45 43l-24 76Z" fill="#37d5e2" opacity=".92"/>
  <circle cx="174" cy="360" r="24" fill="#030812" stroke="#77ddff" stroke-width="8"/>
  <circle cx="264" cy="360" r="24" fill="#030812" stroke="#77ddff" stroke-width="8"/>
  <g fill="#8ea1b5">
    <rect x="400" y="122" width="220" height="20" rx="10"/>
    <rect x="400" y="162" width="390" height="14" rx="7"/>
    <rect x="400" y="198" width="310" height="14" rx="7"/>
    <rect x="400" y="320" width="390" height="16" rx="8"/>
    <rect x="400" y="360" width="340" height="16" rx="8"/>
    <rect x="400" y="400" width="260" height="16" rx="8"/>
  </g>
  <rect x="714" y="122" width="96" height="44" rx="12" fill="#77ddff"/>
</svg>
