<svg xmlns="http://www.w3.org/2000/svg" width="960" height="540" viewBox="0 0 960 540" role="img" aria-label="Demonstração Marques AutoDetail">
  <rect width="960" height="540" fill="#0c0c0b"/>
  <rect x="70" y="62" width="820" height="416" rx="24" fill="#1e1d1b" stroke="#44403c"/>
  <rect x="104" y="98" width="752" height="64" rx="16" fill="#2a2927"/>
  <rect x="104" y="196" width="218" height="228" rx="16" fill="#2a2927"/>
  <rect x="354" y="196" width="218" height="228" rx="16" fill="#2a2927"/>
  <rect x="604" y="196" width="252" height="228" rx="16" fill="#2a2927"/>
  <path d="M146 138h130M650 138h156" stroke="#d6cdbe" stroke-width="16" stroke-linecap="round"/>
  <path d="M145 280c36-48 96-48 132 0v66H145v-66Z" fill="#78716c"/>
  <circle cx="211" cy="238" r="34" fill="#bca67b"/>
  <path d="M396 250h132M396 300h104M396 350h142" stroke="#a8a297" stroke-width="18" stroke-linecap="round"/>
  <path d="M646 252h158M646 304h112M646 356h132" stroke="#a8a297" stroke-width="18" stroke-linecap="round"/>
</svg>
