<svg xmlns="http://www.w3.org/2000/svg" width="960" height="540" viewBox="0 0 960 540" role="img" aria-label="Demonstração Projeto Oficina">
  <rect width="960" height="540" fill="#030812"/>
  <rect x="76" y="60" width="808" height="420" rx="26" fill="#091220" stroke="#3d5772"/>
  <rect x="122" y="112" width="304" height="316" rx="16" fill="#0d1d32"/>
  <rect x="464" y="112" width="374" height="74" rx="14" fill="#0d1d32"/>
  <rect x="464" y="216" width="374" height="212" rx="14" fill="#0d1d32"/>
  <g stroke="#77ddff" stroke-width="18" stroke-linecap="round">
    <path d="M176 178h194M176 232h154M176 286h194M176 340h126"/>
  </g>
  <g fill="#37d5e2">
    <rect x="508" y="140" width="86" height="18" rx="9"/>
    <rect x="508" y="262" width="262" height="14" rx="7"/>
    <rect x="508" y="306" width="214" height="14" rx="7"/>
    <rect x="508" y="350" width="284" height="14" rx="7"/>
  </g>
  <path d="M698 126l36 36 54-66" fill="none" stroke="#8a6fff" stroke-width="18" stroke-linecap="round" stroke-linejoin="round"/>
</svg>
