<svg xmlns="http://www.w3.org/2000/svg" width="1200" height="700" viewBox="0 0 1200 700" role="img" aria-labelledby="title desc">
  <title id="title">Sistema de Chamados API</title>
  <desc id="desc">Capa do projeto Sistema de Chamados API</desc>
  <defs>
    <linearGradient id="bg" x1="0" y1="0" x2="1" y2="1">
      <stop offset="0" stop-color="#0b1220"/>
      <stop offset="1" stop-color="#162743"/>
    </linearGradient>
    <linearGradient id="accent" x1="0" y1="0" x2="1" y2="0">
      <stop offset="0" stop-color="#5ea8ff"/>
      <stop offset="1" stop-color="#70e1d2"/>
    </linearGradient>
  </defs>
  <rect width="1200" height="700" rx="36" fill="url(#bg)"/>
  <circle cx="1030" cy="90" r="190" fill="#5ea8ff" opacity=".09"/>
  <circle cx="1120" cy="640" r="260" fill="#70e1d2" opacity=".06"/>
  <rect x="84" y="84" width="160" height="12" rx="6" fill="url(#accent)"/>
  <text x="84" y="202" fill="#f6f9ff" font-family="Arial, sans-serif" font-size="68" font-weight="700">Sistema de Chamados</text>
  <text x="88" y="270" fill="#bdd0e9" font-family="Arial, sans-serif" font-size="32">API REST para suporte técnico</text>
  <g transform="translate(86 354)">
    <rect width="208" height="74" rx="18" fill="#14243b" stroke="#5ea8ff" stroke-opacity=".45"/>
    <text x="34" y="47" fill="#e4f0ff" font-family="Arial, sans-serif" font-size="25">Java 17</text>
    <rect x="232" width="230" height="74" rx="18" fill="#14243b" stroke="#5ea8ff" stroke-opacity=".45"/>
    <text x="268" y="47" fill="#e4f0ff" font-family="Arial, sans-serif" font-size="25">Spring Boot</text>
    <rect x="486" width="232" height="74" rx="18" fill="#14243b" stroke="#5ea8ff" stroke-opacity=".45"/>
    <text x="520" y="47" fill="#e4f0ff" font-family="Arial, sans-serif" font-size="25">JPA + H2</text>
  </g>
  <g transform="translate(88 512)">
    <rect width="74" height="74" rx="18" fill="url(#accent)"/>
    <path d="M22 27h30M22 38h22M22 49h26" stroke="#07111f" stroke-width="6" stroke-linecap="round"/>
    <text x="106" y="51" fill="#f6f9ff" font-family="Arial, sans-serif" font-size="34" font-weight="600">Projeto público • API documentada</text>
  </g>
</svg>